<svg width="22" height="21" viewBox="0 0 22 21" fill="none" xmlns="http://www.w3.org/2000/svg">
<path d="M10.8026 2H5.98883C4.268 2 3.40759 2 2.75031 2.32698C2.17216 2.6146 1.70211 3.07354 1.40753 3.63803C1.07263 4.27976 1.07263 5.11984 1.07263 6.8V15.2C1.07263 16.8802 1.07263 17.7202 1.40753 18.362C1.70211 18.9265 2.17216 19.3854 2.75031 19.673C3.40759 20 4.268 20 5.98883 20H15.4116C16.364 20 16.8403 20 17.231 19.8978C18.2914 19.6204 19.1196 18.8117 19.4037 17.7765C19.5084 17.395 19.5084 16.93 19.5084 16M17.46 7V1M14.3873 4H20.5326M8.7542 7.5C8.7542 8.60457 7.83709 9.5 6.70578 9.5C5.57447 9.5 4.65736 8.60457 4.65736 7.5C4.65736 6.39543 5.57447 5.5 6.70578 5.5C7.83709 5.5 8.7542 6.39543 8.7542 7.5ZM13.3529 10.9181L4.68926 18.608C4.20196 19.0406 3.95831 19.2568 3.93676 19.4442C3.91808 19.6066 3.98185 19.7676 4.10755 19.8755C4.25257 20 4.58186 20 5.24043 20H14.8544C16.3284 20 17.0654 20 17.6442 19.7582C18.3709 19.4547 18.9499 18.8894 19.2608 18.1799C19.5084 17.6147 19.5084 16.8951 19.5084 15.456C19.5084 14.9717 19.5084 14.7296 19.4542 14.5042C19.386 14.2208 19.2554 13.9554 19.0713 13.7264C18.9248 13.5442 18.7312 13.3929 18.3439 13.0905L15.479 10.8527C15.0914 10.5499 14.8976 10.3985 14.6842 10.3451C14.496 10.298 14.2981 10.3041 14.1134 10.3627C13.9039 10.4291 13.7202 10.5921 13.3529 10.9181Z" stroke="#41B06E" stroke-width="2" stroke-linecap="round" stroke-linejoin="round"/>
</svg>
