<svg width="26" height="28" viewBox="0 0 26 28" fill="none" xmlns="http://www.w3.org/2000/svg">
<path d="M17.7889 10.25V6.5C17.7889 3.73858 15.5503 1.5 12.7889 1.5C10.0275 1.5 7.78891 3.73858 7.78891 6.5V10.25M2.27892 11.94L1.52892 19.94C1.31567 22.2146 1.20905 23.3519 1.58648 24.2303C1.91804 25.002 2.49906 25.6401 3.23644 26.0422C4.07582 26.5 5.21812 26.5 7.50272 26.5H18.0751C20.3597 26.5 21.502 26.5 22.3414 26.0422C23.0788 25.6401 23.6598 25.002 23.9914 24.2303C24.3688 23.3519 24.2622 22.2146 24.0489 19.94L23.2989 11.94C23.1188 10.0192 23.0288 9.0588 22.5968 8.3327C22.2164 7.69323 21.6543 7.18139 20.9821 6.86231C20.2189 6.5 19.2543 6.5 17.3251 6.5L8.25272 6.5C6.32353 6.5 5.35893 6.5 4.59569 6.8623C3.92349 7.18139 3.36142 7.69323 2.98099 8.3327C2.54903 9.05879 2.45899 10.0192 2.27892 11.94Z" stroke="black" stroke-width="2" stroke-linecap="round" stroke-linejoin="round"/>
</svg>
