<svg width="26" height="32" viewBox="0 0 26 32" fill="none" xmlns="http://www.w3.org/2000/svg">
<path d="M15.9868 25.2717C16.6121 27.6057 15.2271 30.0046 12.8932 30.63C10.5593 31.2554 8.1603 29.8703 7.53493 27.5364M10.8834 7.37225C11.327 6.57411 11.4732 5.60942 11.2182 4.65772C10.697 2.71279 8.69787 1.55858 6.75294 2.07972C4.80801 2.60087 3.65381 4.60001 4.17495 6.54494C4.42996 7.49664 5.03886 8.25902 5.82213 8.72841M18.6773 12.7746C18.1567 10.8319 16.7671 9.20734 14.8139 8.25835C12.8608 7.30937 10.5043 7.11366 8.26272 7.71429C6.02115 8.31492 4.07817 9.66268 2.86122 11.4611C1.64427 13.2595 1.25304 15.3612 1.77358 17.3039C2.63483 20.5181 2.4676 23.0824 1.92371 25.031C1.30382 27.2518 0.993873 28.3622 1.07761 28.5852C1.17341 28.8403 1.24271 28.9103 1.4968 29.0088C1.71889 29.0948 2.65189 28.8448 4.51788 28.3448L21.8211 23.7084C23.6871 23.2085 24.6201 22.9585 24.7694 22.7729C24.9402 22.5606 24.9652 22.4653 24.9207 22.1965C24.8817 21.9615 24.0581 21.1548 22.4108 19.5415C20.9655 18.1259 19.5385 15.9888 18.6773 12.7746Z" stroke="black" stroke-width="2" stroke-linecap="round" stroke-linejoin="round"/>
</svg>
