<svg width="26" height="27" viewBox="0 0 26 27" fill="none" xmlns="http://www.w3.org/2000/svg">
<path d="M7.78845 20.25H17.7885M11.5606 2.45503L3.08269 9.04894C2.51598 9.48971 2.23262 9.7101 2.02849 9.9861C1.84766 10.2306 1.71295 10.506 1.63099 10.7988C1.53845 11.1294 1.53845 11.4884 1.53845 12.2063V21.25C1.53845 22.6501 1.53845 23.3502 1.81094 23.885C2.05062 24.3554 2.43307 24.7378 2.90348 24.9775C3.43826 25.25 4.13832 25.25 5.53845 25.25H20.0385C21.4386 25.25 22.1387 25.25 22.6734 24.9775C23.1438 24.7378 23.5263 24.3554 23.766 23.885C24.0385 23.3502 24.0385 22.6501 24.0385 21.25V12.2063C24.0385 11.4884 24.0385 11.1294 23.9459 10.7988C23.8639 10.506 23.7292 10.2306 23.5484 9.9861C23.3443 9.7101 23.0609 9.48971 22.4942 9.04894L14.0163 2.45503C13.5772 2.11346 13.3576 1.94268 13.1151 1.87703C12.9012 1.81911 12.6757 1.81911 12.4618 1.87703C12.2193 1.94268 11.9997 2.11346 11.5606 2.45503Z" stroke="white" stroke-width="2" stroke-linecap="round" stroke-linejoin="round"/>
</svg>
