<svg width="18" height="20" viewBox="0 0 18 20" fill="none" xmlns="http://www.w3.org/2000/svg">
<path d="M16.5 9.16667L10.1716 2.83824C9.73919 2.40587 9.523 2.18968 9.27071 2.03507C9.04703 1.898 8.80317 1.79699 8.54808 1.73575C8.26036 1.66667 7.95462 1.66667 7.34314 1.66667L4 1.66667M1.5 7.25L1.5 8.89543C1.5 9.30309 1.5 9.50691 1.54605 9.69872C1.58688 9.86878 1.65422 10.0314 1.7456 10.1805C1.84867 10.3487 1.9928 10.4928 2.28105 10.7811L8.78105 17.2811C9.44108 17.9411 9.77109 18.2711 10.1516 18.3947C10.4864 18.5035 10.847 18.5035 11.1817 18.3947C11.5622 18.2711 11.8923 17.9411 12.5523 17.2811L14.6144 15.219C15.2744 14.5589 15.6044 14.2289 15.7281 13.8484C15.8368 13.5136 15.8368 13.153 15.7281 12.8183C15.6044 12.4378 15.2744 12.1077 14.6144 11.4477L8.53105 5.36439C8.2428 5.07613 8.09867 4.93201 7.93048 4.82894C7.78135 4.73756 7.61878 4.67022 7.44872 4.62939C7.25691 4.58334 7.05308 4.58334 6.64543 4.58334H4.16667C3.23325 4.58334 2.76654 4.58334 2.41002 4.76499C2.09641 4.92478 1.84145 5.17975 1.68166 5.49335C1.5 5.84987 1.5 6.31658 1.5 7.25Z" stroke="#41B06E" stroke-width="2" stroke-linecap="round" stroke-linejoin="round"/>
</svg>
