<svg width="28" height="28" viewBox="0 0 28 28" fill="none" xmlns="http://www.w3.org/2000/svg">
<path d="M3.26682 12.4306C2.52263 12.1412 2.15054 11.9965 2.04191 11.788C1.94774 11.6072 1.94761 11.3919 2.04157 11.2111C2.14996 11.0024 2.52188 10.8573 3.26572 10.567L24.3754 2.32909C25.0469 2.06705 25.3826 1.93603 25.5972 2.0077C25.7835 2.06994 25.9297 2.21615 25.9919 2.40247C26.0636 2.617 25.9326 2.95274 25.6705 3.62421L17.4326 24.7339C17.1423 25.4777 16.9972 25.8497 16.7885 25.958C16.6077 26.052 16.3924 26.0519 16.2116 25.9577C16.0031 25.8491 15.8584 25.477 15.569 24.7328L12.2839 16.2853C12.2251 16.1342 12.1958 16.0587 12.1504 15.9951C12.1102 15.9387 12.0609 15.8894 12.0045 15.8492C11.9409 15.8039 11.8654 15.7745 11.7143 15.7157L3.26682 12.4306Z" stroke="#ACACAC" stroke-width="2" stroke-linecap="round" stroke-linejoin="round"/>
</svg>
