<svg width="28" height="28" viewBox="0 0 28 28" fill="none" xmlns="http://www.w3.org/2000/svg">
<path d="M17.75 2.07225C16.5662 1.70044 15.3065 1.5 14 1.5C7.09644 1.5 1.5 7.09644 1.5 14C1.5 20.9036 7.09644 26.5 14 26.5C20.9036 26.5 26.5 20.9036 26.5 14C26.5 11.8558 25.9601 9.83777 25.0089 8.07431M20.25 6.1875H20.2563M12.1251 26.3603L12.1252 23.6062C12.1252 23.457 12.1786 23.3127 12.2757 23.1994L15.3829 19.5743C15.6382 19.2763 15.5591 18.8195 15.2184 18.6249L11.6482 16.5847C11.5512 16.5292 11.4708 16.4488 11.4154 16.3518L9.08807 12.2733C8.96695 12.061 8.73322 11.9388 8.48979 11.9605L1.58023 12.5759M25.25 6.5C25.25 9.26142 22.75 11.5 20.25 14C17.75 11.5 15.25 9.26142 15.25 6.5C15.25 3.73858 17.4886 1.5 20.25 1.5C23.0114 1.5 25.25 3.73858 25.25 6.5ZM20.5625 6.1875C20.5625 6.36009 20.4226 6.5 20.25 6.5C20.0774 6.5 19.9375 6.36009 19.9375 6.1875C19.9375 6.01491 20.0774 5.875 20.25 5.875C20.4226 5.875 20.5625 6.01491 20.5625 6.1875Z" stroke="#ACACAC" stroke-width="2" stroke-linecap="round" stroke-linejoin="round"/>
</svg>
