<svg width="20" height="22" viewBox="0 0 20 22" fill="none" xmlns="http://www.w3.org/2000/svg">
<path d="M6 7L2.09346 11.6879C1.74465 12.1064 1.57024 12.3157 1.56758 12.4925C1.56526 12.6461 1.63373 12.7923 1.75326 12.8889C1.89075 13 2.16318 13 2.70803 13H10L9 21L14 15M13.65 9H17.292C17.8368 9 18.1093 9 18.2467 9.11111C18.3663 9.2077 18.4347 9.35388 18.4324 9.50754C18.4298 9.68429 18.2554 9.89358 17.9065 10.3121L16.5502 11.9397M8.57275 3.91265L11 1L10.4002 5.79771M19 20L1 2" stroke="black" stroke-width="2" stroke-linecap="round" stroke-linejoin="round"/>
</svg>
