<svg width="27" height="28" viewBox="0 0 27 28" fill="none" xmlns="http://www.w3.org/2000/svg">
<path d="M23.4134 8.09718L12.7884 14M12.7884 14L2.16341 8.09718M12.7884 14L12.7885 25.875M15.2885 25.1111L13.7597 25.9604C13.4052 26.1573 13.228 26.2558 13.0403 26.2944C12.8741 26.3286 12.7028 26.3286 12.5366 26.2944C12.3489 26.2558 12.1717 26.1573 11.8172 25.9604L2.56717 20.8215C2.19277 20.6135 2.00556 20.5095 1.86924 20.3616C1.74865 20.2307 1.65739 20.0756 1.60156 19.9066C1.53845 19.7156 1.53845 19.5015 1.53845 19.0732V8.92681C1.53845 8.4985 1.53845 8.28435 1.60156 8.09335C1.65739 7.92438 1.74865 7.76928 1.86924 7.63842C2.00556 7.4905 2.19276 7.3865 2.56717 7.17849L11.8172 2.0396C12.1717 1.84266 12.3489 1.74418 12.5366 1.70557C12.7028 1.6714 12.8741 1.6714 13.0403 1.70557C13.228 1.74418 13.4052 1.84265 13.7597 2.0396L23.0097 7.17849C23.3841 7.38649 23.5713 7.49049 23.7077 7.63842C23.8283 7.76928 23.9195 7.92438 23.9753 8.09335C24.0385 8.28435 24.0385 8.4985 24.0385 8.92681L24.0385 14.625M7.16345 4.625L18.4135 10.875M21.5385 25.25V17.75M17.7885 21.5H25.2885" stroke="black" stroke-width="2" stroke-linecap="round" stroke-linejoin="round"/>
</svg>
