<svg width="25" height="28" viewBox="0 0 25 28" fill="none" xmlns="http://www.w3.org/2000/svg">
<path d="M9.53238 23.2139L10.2629 24.8569C10.4801 25.346 10.8345 25.7616 11.2832 26.0533C11.7319 26.3449 12.2556 26.5001 12.7907 26.5C13.3259 26.5001 13.8495 26.3449 14.2982 26.0533C14.7469 25.7616 15.1013 25.346 15.3185 24.8569L16.049 23.2139C16.3091 22.6309 16.7466 22.1448 17.299 21.825C17.855 21.5043 18.4982 21.3677 19.1365 21.4347L20.924 21.625C21.4561 21.6813 21.9931 21.582 22.4699 21.3392C22.9467 21.0963 23.3428 20.7204 23.6102 20.2569C23.8779 19.7938 24.0054 19.2628 23.9773 18.7286C23.9492 18.1944 23.7667 17.6798 23.4518 17.2472L22.3935 15.7931C22.0166 15.2714 21.8153 14.6435 21.8185 14C21.8184 13.3582 22.0216 12.7329 22.399 12.2139L23.4574 10.7597C23.7722 10.3272 23.9548 9.81259 23.9829 9.27834C24.011 8.7441 23.8834 8.21318 23.6157 7.75C23.3483 7.28654 22.9522 6.91061 22.4755 6.66778C21.9987 6.42496 21.4617 6.32566 20.9296 6.38194L19.1421 6.57222C18.5038 6.63926 17.8606 6.50265 17.3046 6.18194C16.751 5.86032 16.3134 5.3717 16.0546 4.78611L15.3185 3.14306C15.1013 2.65396 14.7469 2.23839 14.2982 1.94675C13.8495 1.6551 13.3259 1.49991 12.7907 1.5C12.2556 1.49991 11.7319 1.6551 11.2832 1.94675C10.8345 2.23839 10.4801 2.65396 10.2629 3.14306L9.53238 4.78611C9.27354 5.3717 8.83597 5.86032 8.28238 6.18194C7.7264 6.50265 7.08321 6.63926 6.44488 6.57222L4.65182 6.38194C4.11973 6.32566 3.58275 6.42496 3.10597 6.66778C2.62918 6.91061 2.23309 7.28654 1.96571 7.75C1.69799 8.21318 1.57044 8.7441 1.59854 9.27834C1.62665 9.81259 1.8092 10.3272 2.12404 10.7597L3.18238 12.2139C3.5598 12.7329 3.76305 13.3582 3.76293 14C3.76305 14.6418 3.5598 15.2671 3.18238 15.7861L2.12404 17.2403C1.8092 17.6728 1.62665 18.1874 1.59854 18.7217C1.57044 19.2559 1.69799 19.7868 1.96571 20.25C2.23335 20.7132 2.6295 21.0889 3.10621 21.3317C3.58292 21.5745 4.11977 21.674 4.65182 21.6181L6.43932 21.4278C7.07766 21.3607 7.72084 21.4973 8.27682 21.8181C8.83248 22.1388 9.27208 22.6275 9.53238 23.2139Z" stroke="black" stroke-width="2" stroke-linecap="round" stroke-linejoin="round"/>
<path d="M12.7885 17.75C14.8595 17.75 16.5385 16.0711 16.5385 14C16.5385 11.9289 14.8595 10.25 12.7885 10.25C10.7174 10.25 9.03848 11.9289 9.03848 14C9.03848 16.0711 10.7174 17.75 12.7885 17.75Z" stroke="black" stroke-width="2" stroke-linecap="round" stroke-linejoin="round"/>
</svg>
