<svg width="33" height="33" viewBox="0 0 33 33" fill="none" xmlns="http://www.w3.org/2000/svg">
<path d="M6.75295 27.3477C7.64009 25.2576 9.71136 23.7917 12.125 23.7917H20.875C23.2887 23.7917 25.3599 25.2576 26.2471 27.3477M22.3334 12.8542C22.3334 16.0758 19.7217 18.6875 16.5 18.6875C13.2784 18.6875 10.6667 16.0758 10.6667 12.8542C10.6667 9.63249 13.2784 7.02082 16.5 7.02082C19.7217 7.02082 22.3334 9.63249 22.3334 12.8542ZM31.0834 16.5C31.0834 24.5541 24.5542 31.0833 16.5 31.0833C8.44587 31.0833 1.91669 24.5541 1.91669 16.5C1.91669 8.44584 8.44587 1.91666 16.5 1.91666C24.5542 1.91666 31.0834 8.44584 31.0834 16.5Z" stroke="black" stroke-width="2" stroke-linecap="round" stroke-linejoin="round"/>
</svg>
